<?xml version="1.0" encoding="UTF-8" standalone="no"?>
<svg
   xmlns:dc="http://purl.org/dc/elements/1.1/"
   xmlns:cc="http://creativecommons.org/ns#"
   xmlns:rdf="http://www.w3.org/1999/02/22-rdf-syntax-ns#"
   xmlns:svg="http://www.w3.org/2000/svg"
   xmlns="http://www.w3.org/2000/svg"
   xmlns:sodipodi="http://sodipodi.sourceforge.net/DTD/sodipodi-0.dtd"
   xmlns:inkscape="http://www.inkscape.org/namespaces/inkscape"
   inkscape:version="1.0 (4035a4fb49, 2020-05-01)"
   height="287.84897"
   sodipodi:docname="logo.svg"
   id="svg20"
   version="1.1"
   fill="none"
   viewBox="0 0 287.84897 287.84897"
   width="287.84897">
  <metadata
     id="metadata26">
    <rdf:RDF>
      <cc:Work
         rdf:about="">
        <dc:format>image/svg+xml</dc:format>
        <dc:type
           rdf:resource="http://purl.org/dc/dcmitype/StillImage" />
      </cc:Work>
    </rdf:RDF>
  </metadata>
  <defs
     id="defs24" />
  <sodipodi:namedview
     inkscape:current-layer="svg20"
     inkscape:window-maximized="1"
     inkscape:window-y="-9"
     inkscape:window-x="-9"
     inkscape:cy="144.18399"
     inkscape:cx="85.864862"
     inkscape:zoom="2.3863636"
     showgrid="false"
     id="namedview22"
     inkscape:window-height="1001"
     inkscape:window-width="1920"
     inkscape:pageshadow="2"
     inkscape:pageopacity="0"
     guidetolerance="10"
     gridtolerance="10"
     objecttolerance="10"
     borderopacity="1"
     bordercolor="#666666"
     pagecolor="#ffffff" />
  <rect
     y="0"
     x="0"
     height="287.84897"
     width="287.84897"
     id="rect864"
     style="fill:#000000;stroke-width:5.03214;stop-color:#000000" />
  <g
     transform="translate(43.924585,67.324356)"
     id="g860">
    <path
       d="m 171.423,19.4058 c -2.872,-2.7528 -5.74,-5.5056 -8.616,-8.2501 -0.029,-0.0289 -0.111,0.0041 -0.243,0.0123 0.049,0.1934 0.057,0.3786 0.144,0.5143 1.777,2.7323 2.596,5.806 3.127,8.9662 0.206,1.2221 0.383,2.4771 0.346,3.7115 -0.074,2.7487 -0.91,5.2422 -2.996,7.1556 -1.646,1.5102 -3.609,2.2961 -5.863,2.0657 -1.947,-0.2017 -3.383,-1.3044 -4.535,-2.8351 -1.222,-1.6254 -1.909,-3.477 -2.358,-5.4439 -0.35,-1.5389 -0.852,-3.0285 -1.79,-4.3288 -1.329,-1.8393 -3.131,-2.9091 -5.357,-3.3288 -1.185,-0.2222 -2.259,0.0905 -3.313,0.5555 -2.16,0.9505 -3.925,2.4483 -5.481,4.1806 -1.909,2.1232 -3.51,4.481 -4.909,6.9705 -1.008,1.7981 -2.024,3.6004 -2.934,5.4479 -0.888,1.8147 -1.682,3.6745 -2.448,5.5468 -0.761,1.8557 -1.469,3.7321 -2.148,5.6208 -0.601,1.6747 -1.148,3.3659 -1.683,5.0653 -0.765,2.4236 -1.53,4.8472 -2.226,7.2914 -0.691,2.4277 -1.317,4.8801 -1.926,7.3284 -0.465,1.8558 -0.905,3.7198 -1.279,5.592 -0.432,2.1809 -0.794,4.3782 -1.161,6.5755 -0.263,1.5759 -0.51,3.156 -0.707,4.7402 -0.144,1.1727 -0.181,2.3619 -0.293,3.5387 -0.345,3.6046 -0.296,7.2174 -0.251,10.8301 0.021,1.539 0.202,3.0776 0.346,4.6126 0.128,1.37 0.263,2.741 0.469,4.103 0.185,1.226 0.453,2.44 0.728,3.649 0.453,1.976 1.013,3.93 1.939,5.728 0.621,1.218 1.386,2.387 2.246,3.452 2.181,2.7 5.164,3.988 8.51,4.597 2.074,0.378 4.16,0.403 6.246,0.329 0.979,-0.037 1.955,-0.263 2.926,-0.436 2.057,-0.362 4.065,-0.922 5.987,-1.728 1.839,-0.77 3.625,-1.663 5.44,-2.494 0.329,-0.152 0.423,-0.379 0.32,-0.732 -0.415,-1.391 -0.86,-2.774 -1.205,-4.181 -0.613,-2.498 -1.193,-5 -1.728,-7.514 -0.325,-1.518 -0.556,-3.057 -0.803,-4.592 -0.263,-1.654 -0.51,-3.3122 -0.74,-4.9705 -0.223,-1.5842 -0.441,-3.1725 -0.622,-4.7608 -0.131,-1.1604 -0.201,-2.329 -0.288,-3.4935 -0.123,-1.6294 -0.238,-3.2589 -0.358,-4.8883 -0.004,-0.0288 -0.004,-0.0618 -0.004,-0.0906 -0.033,-1.1603 -0.066,-2.3166 -0.09,-3.477 -0.037,-1.6418 -0.054,-3.2836 -0.099,-4.9254 -0.05,-1.9545 -0.202,-3.9131 -0.152,-5.8635 0.053,-2.292 0.214,-4.588 0.44,-6.8676 0.222,-2.2302 0.498,-4.4646 0.93,-6.6619 0.362,-1.8434 0.971,-3.6374 1.481,-5.4521 0.329,-1.1727 0.708,-2.3289 1.44,-3.3165 0.292,-0.395 0.634,-0.7777 1.013,-1.0863 1.061,-0.8559 2.123,-1.7158 3.246,-2.4894 1.58,-1.0904 3.358,-1.7817 5.21,-2.2673 1.185,-0.3086 2.382,-0.5925 3.588,-0.7983 1.135,-0.1933 2.283,-0.3291 3.431,-0.3826 2.346,-0.1029 4.695,-0.1975 7.041,-0.1687 1.535,0.0205 3.078,0.2057 4.6,0.4279 1.893,0.2757 3.782,0.5925 5.646,1.0205 1.407,0.325 2.79,0.7982 4.143,1.3126 1.243,0.4691 2.457,1.0369 3.65,1.6294 2.058,1.0329 3.951,2.3126 5.679,3.8474 2.004,1.7817 3.662,3.8103 4.757,6.2627 0.493,1.1027 0.876,2.259 1.25,3.4111 0.478,1.4731 0.716,2.9956 0.77,4.5428 0.037,1.0204 0.14,2.0491 0.07,3.0655 -0.111,1.5801 -0.268,3.1684 -0.556,4.7197 -0.391,2.0985 -0.814,4.2053 -1.427,6.2462 -0.856,2.8516 -1.799,5.6825 -2.885,8.4518 -1.02,2.6046 -2.185,5.1641 -3.465,7.6535 -1.152,2.2508 -2.464,4.4275 -3.843,6.5466 -1.415,2.1686 -2.958,4.2586 -4.526,6.3206 -1.263,1.658 -2.621,3.246 -3.983,4.826 -1.441,1.675 -2.897,3.333 -4.403,4.946 -1.502,1.609 -3.012,3.218 -4.638,4.704 -2.246,2.053 -4.604,3.991 -6.921,5.966 -0.502,0.428 -1.053,0.798 -1.543,1.239 -0.144,0.127 -0.234,0.415 -0.21,0.609 0.202,1.543 0.436,3.077 0.659,4.62 0.181,1.26 0.358,2.519 0.522,3.778 0.165,1.259 0.317,2.522 0.469,3.785 0.177,1.424 0.399,2.848 0.515,4.276 0.111,1.44 -0.317,2.724 -1.531,3.608 -0.819,0.597 -1.675,0.28 -2.469,-0.119 -0.913,-0.461 -1.461,-1.288 -1.946,-2.14 -1.609,-2.814 -2.885,-5.789 -4.123,-8.781 -0.424,-1.024 -0.844,-2.049 -1.264,-3.077 -0.135,-0.334 -0.312,-0.408 -0.662,-0.219 -2.078,1.136 -4.135,2.317 -6.263,3.354 -2.938,1.432 -6.007,2.555 -9.196,3.284 -1.379,0.316 -2.794,0.535 -4.206,0.658 -1.646,0.144 -3.308,0.255 -4.954,0.165 -2.07,-0.112 -4.123,-0.457 -6.139,-1.004 -2.502,-0.675 -4.901,-1.593 -7.185,-2.794 -1.876,-0.984 -3.6,-2.194 -5.234,-3.556 -2.461,-2.049 -4.497,-4.456 -6.205,-7.143 -1.189,-1.872 -2.239,-3.831 -2.9957,-5.921 -0.7571,-2.094 -1.5102,-4.201 -2.0945,-6.345 -0.5102,-1.868 -0.8065,-3.794 -1.1644,-5.703 -0.2099,-1.115 -0.3827,-2.239 -0.5226,-3.366 -0.1317,-1.053 -0.2263,-2.115 -0.2881,-3.177 -0.1111,-1.9171 -0.2057,-3.8387 -0.2757,-5.7603 -0.0534,-1.4731 -0.0781,-2.9503 -0.0823,-4.4234 -0.0041,-0.8394 0.033,-1.683 0.0864,-2.5224 0.1029,-1.6747 0.2264,-3.3494 0.3498,-5.0242 0.0823,-1.0904 0.1646,-2.1808 0.2839,-3.2671 0.1111,-1.0081 0.2593,-2.0163 0.4033,-3.0203 0.1893,-1.3332 0.3785,-2.6622 0.5925,-3.9913 0.1646,-1.0328 0.3457,-2.0656 0.5473,-3.0902 0.3868,-1.9628 0.753,-3.9337 1.1974,-5.8842 0.4732,-2.082 1.0081,-4.1559 1.5554,-6.2215 0.6333,-2.3989 1.2633,-4.7979 1.9753,-7.1721 0.823,-2.7487 1.679,-5.4891 2.613,-8.2008 1.033,-2.9997 2.102,-5.9911 3.283,-8.9332 0.98,-2.4442 2.115,-4.8308 3.226,-7.2173 1.375,-2.9503 2.984,-5.7772 4.72,-8.5259 1.465,-2.3207 3.066,-4.5427 4.847,-6.6371 1.408,-1.6583 2.91,-3.22603 4.572,-4.62506 1.716,-1.4484 3.543,-2.75279 5.526,-3.83086 1.84,-0.9999 3.745,-1.82286 5.753,-2.394816 1.526,-0.432053 3.082,-0.736544 4.678,-0.794151 1.502,-0.0576074 3.004,-0.16459392 4.51,-0.156364337 0.77,0.004114787 1.543,0.205742337 2.313,0.337415337 1.107,0.185166 2.226,0.325065 3.312,0.600756 1.646,0.41971 3.169,1.17272 4.65,1.99568 3.506,1.94218 6.579,4.44397 9.262,7.3984 1.408,1.5513 2.679,3.2424 3.889,4.9583 0.909,1.2921 1.621,2.724 2.423,4.0942 -0.041,0.0041 -0.065,0.0124 -0.086,0.0206 z m -15.348,45.4026 c -0.017,0 -0.033,0 -0.054,0 0.05,2.8639 0.091,5.7319 0.148,8.5958 0.017,0.7818 0.054,1.5677 0.107,2.3495 0.132,1.8599 0.276,3.7198 0.424,5.5797 0.12,1.469 0.231,2.9379 0.387,4.4069 0.21,1.971 0.449,3.942 0.7,5.9089 0.325,2.547 0.6,5.1064 1.028,7.6411 0.556,3.3047 1.235,6.5837 1.864,9.8757 0.091,0.469 0.21,0.502 0.568,0.169 0.477,-0.441 0.967,-0.869 1.416,-1.338 2.106,-2.201 4.234,-4.386 6.287,-6.633 2.629,-2.8719 5.024,-5.9374 7.23,-9.147 1.749,-2.5429 3.172,-5.2587 4.464,-8.0567 1.877,-4.0531 3.432,-8.2214 4.605,-12.5296 0.778,-2.8556 1.35,-5.7401 1.226,-8.7233 -0.07,-1.72 -0.609,-3.259 -1.86,-4.4769 -1.621,-1.5801 -3.604,-2.5471 -5.715,-3.2836 -3.49,-1.218 -7.119,-1.6213 -10.781,-1.6994 -1.654,-0.033 -3.313,0.0905 -4.967,0.1646 -2.16,0.0905 -4.259,0.5225 -6.328,1.1521 -0.474,0.144 -0.655,0.3909 -0.663,0.86 -0.016,1.1603 -0.082,2.3207 -0.09,3.4811 -0.009,1.901 0.004,3.8021 0.004,5.7031 z"
       fill="#ff8503"
       id="path2" />
    <path
       d="m 54.2336,119.568 c 0.3045,-0.103 0.5802,-0.189 0.8476,-0.288 2.5718,-0.983 5.1271,-2.016 7.7236,-2.938 1.9586,-0.695 3.9461,-1.329 5.9624,-1.827 2.3043,-0.568 4.6415,-1.016 6.9828,-1.407 1.3991,-0.235 2.831,-0.362 4.2465,-0.35 1.9093,0.017 3.7898,0.366 5.5386,1.173 1.0328,0.477 1.8969,1.214 2.5594,2.148 0.6666,0.938 1.3579,1.868 1.9463,2.851 0.7283,1.222 1.1151,2.572 1.2797,3.992 0.1687,1.432 0.1235,2.847 -0.2839,4.234 -0.6625,2.251 -1.9545,4.024 -4.0325,5.184 -1.4155,0.79 -2.9298,1.169 -4.5346,1.033 -0.7653,-0.066 -1.506,-0.362 -2.2672,-0.51 -1.0699,-0.206 -2.1562,-0.342 -3.222,-0.564 -1.4607,-0.308 -2.9338,-0.518 -4.4193,-0.424 -1.3826,0.087 -2.7651,0.293 -4.1354,0.515 -1.6089,0.263 -3.2095,0.564 -4.7979,0.922 -1.8516,0.419 -3.6869,0.913 -5.5262,1.39 -0.9546,0.247 -1.901,0.535 -2.8516,0.79 -0.325,0.087 -0.469,0.26 -0.4402,0.609 0.1275,1.572 0.251,3.14 0.3538,4.712 0.107,1.679 0.3292,3.366 0.251,5.036 -0.1069,2.247 -0.7777,4.346 -2.4812,5.971 -0.9423,0.901 -2.1068,1.419 -3.3824,1.378 -2.3701,-0.078 -4.2547,-1.497 -4.802,-3.991 -0.321,-1.448 -0.1605,-2.897 -0.037,-4.349 0.144,-1.692 0.2057,-3.391 0.3004,-5.086 0.0041,-0.087 -0.0289,-0.173 -0.0577,-0.338 -0.2304,0.07 -0.4526,0.099 -0.6378,0.198 -1.3414,0.728 -2.6911,1.448 -4.0119,2.218 -1.6706,0.971 -3.3454,1.942 -4.9707,2.991 -1.2098,0.786 -2.3208,1.716 -3.5018,2.547 -1.4566,1.025 -2.9544,1.975 -4.7649,2.251 -1.5719,0.239 -3.008,-0.095 -4.2836,-1.082 -1.8064,-1.399 -2.2549,-3.559 -1.3085,-5.901 0.465,-1.148 1.004,-2.279 1.6336,-3.341 0.6419,-1.086 1.6747,-1.831 2.6993,-2.543 2.2673,-1.576 4.5387,-3.144 6.8348,-4.674 2.3207,-1.543 4.6703,-3.049 7.0199,-4.543 1.111,-0.708 2.2631,-1.354 3.3947,-2.033 0.6255,-0.374 0.6995,-0.596 0.5843,-1.358 -0.1399,-0.946 -0.2387,-1.901 -0.3456,-2.851 -0.1523,-1.354 -0.3539,-2.704 -0.4321,-4.061 -0.1358,-2.284 -0.7119,-4.49 -1.1316,-6.724 -0.576,-3.053 -1.2262,-6.094 -1.8558,-9.139 -0.4279,-2.0656 -0.8641,-4.1272 -1.3332,-6.1846 -0.6048,-2.654 -1.218,-5.3039 -1.8722,-7.9497 -0.7736,-3.1355 -1.5966,-6.2627 -2.3948,-9.3941 -0.535,-2.0862 -1.0493,-4.1765 -1.6048,-6.2586 -0.7407,-2.7898 -1.4731,-5.5796 -2.2879,-8.3489 -0.4855,-1.65 -1.1151,-3.2548 -1.6994,-4.876 -0.7942,-2.1973 -1.576,-4.3987 -2.4195,-6.5755 -0.7901,-2.0368 -1.6624,-4.0448 -2.4895,-6.0693 -0.5719,-1.399 -1.1233,-2.8063 -1.7035,-4.2012 -0.2099,-0.5061 -0.4568,-1.004 -0.7242,-1.4854 -1.2221,-2.2097 -2.2508,-4.5016 -2.8845,-6.954 -0.3416,-1.3209 -0.5473,-2.6664 -0.5308,-4.0407 0.0205,-1.6089 -0.0576,-3.2178 0.3415,-4.802 0.4814,-1.9257 1.4525,-3.5757 2.6952,-5.0982 1.2879,-1.5801 2.9092,-2.6664 4.8102,-3.3865 2.4854,-0.9423 4.9419,-0.8271 7.3738,0.1317 2.7775,1.0986 4.765,3.0902 6.1764,5.6825 1.041,1.9134 1.6665,3.9831 2.2837,6.057 0.3498,1.1727 0.7942,2.3207 1.1686,3.4893 0.5514,1.7241 1.1234,3.4441 1.6048,5.1888 0.572,2.0738 1.0904,4.1641 1.576,6.2627 0.6542,2.8268 1.2632,5.6578 1.8681,8.497 0.3004,1.4032 0.5679,2.8145 0.8065,4.2259 0.358,2.1068 0.6913,4.2177 1.0164,6.3286 0.3086,2.008 0.6213,4.016 0.8929,6.0322 0.1893,1.4073 0.3127,2.8269 0.4691,4.2383 0.1769,1.5759 0.3662,3.1478 0.5308,4.7279 0.1111,1.0863 0.1852,2.1808 0.2839,3.2671 0.1111,1.2386 0.2428,2.473 0.3498,3.7116 0.0782,0.897 0.1193,1.794 0.1934,2.691 0.1111,1.3579 0.2345,2.7158 0.3497,4.0737 0.07,0.8682 0.1317,1.7364 0.1934,2.6005 0.1194,1.6912 0.2428,3.3783 0.358,5.0694 0.0412,0.6008 0.0659,1.1974 0.0947,1.7982 0.0617,1.3663 0.1193,2.7323 0.1851,4.0983 0.0576,1.169 0.1276,2.337 0.177,3.51 0.0658,1.547 0.1275,3.094 0.181,4.641 0.0659,1.971 0.1152,3.938 0.1852,5.909 0.0164,0.498 0.0823,0.988 0.1358,1.572 z"
       fill="#ff8503"
       id="path4" />
    <path
       d="m 94.492,60.0344 c -0.1482,1.6582 -0.3046,3.3165 -0.4445,4.9747 -0.0781,0.8971 -0.1234,1.7941 -0.1975,2.6911 -0.1111,1.3579 -0.2139,2.7158 -0.3538,4.0736 -0.1646,1.576 -0.3169,3.1602 -0.5597,4.7238 -0.3991,2.5553 -0.7941,5.1147 -1.3249,7.6412 -0.465,2.2096 -1.037,4.3987 -1.6995,6.5549 -0.539,1.7405 -1.2262,3.444 -1.9545,5.1146 -1.1069,2.5348 -2.4566,4.9417 -4.0408,7.2137 -1.2097,1.736 -2.5635,3.341 -4.3205,4.551 -1.4855,1.02 -3.0985,1.711 -4.9214,1.925 -2.0944,0.243 -3.9996,-0.238 -5.8471,-1.181 -1.288,-0.658 -2.4072,-1.53 -3.3907,-2.563 -1.4772,-1.543 -2.6993,-3.288 -3.728,-5.164 -1.3291,-2.4239 -2.4689,-4.938 -3.226,-7.5962 -0.8394,-2.9462 -1.613,-5.9129 -2.292,-8.9003 -0.4279,-1.8887 -0.6748,-3.8267 -0.9176,-5.7524 -0.1687,-1.3373 -0.2222,-2.6911 -0.2839,-4.0366 -0.0617,-1.3826 -0.0576,-2.7693 -0.1029,-4.1519 -0.0452,-1.4278 -0.2222,-2.8556 -0.1481,-4.2752 0.1029,-1.9834 0.3456,-3.9626 0.5966,-5.9377 0.2675,-2.0738 0.86,-4.0736 1.7406,-5.9664 1.0164,-2.1891 2.4031,-4.0984 4.6169,-5.2258 2.4154,-1.2303 4.6497,-0.7613 6.7071,0.9793 1.8928,1.6007 2.7035,3.7157 2.7323,6.1845 0.0247,2.2385 -0.5185,4.3699 -1.0575,6.5096 -0.3498,1.3785 -0.7284,2.7528 -1.0617,4.1354 -0.1028,0.4197 -0.1193,0.86 -0.1563,1.292 -0.0412,0.5391 -0.0988,1.0781 -0.0823,1.6172 0.0411,1.6376 0.0535,3.2794 0.1893,4.9089 0.2057,2.4154 0.6213,4.7978 1.1274,7.1721 0.6296,2.9462 1.3415,5.8677 2.4977,8.6575 0.4074,0.9876 0.967,1.9298 1.5595,2.8228 0.5103,0.7653 0.893,0.753 1.6419,0.1892 0.9464,-0.7159 1.5554,-1.7035 2.1026,-2.7199 1.0575,-1.9709 1.897,-4.0407 2.5677,-6.1762 0.6131,-1.9587 1.2962,-3.8968 1.8229,-5.876 0.5966,-2.2508 1.1027,-4.5345 1.5554,-6.8182 0.4361,-2.1973 0.7735,-4.4193 1.1233,-6.633 0.2634,-1.6871 0.4814,-3.3783 0.7036,-5.0694 0.1153,-0.86 0.1441,-1.7365 0.3004,-2.5883 0.2263,-1.2303 0.7489,-2.3536 1.5719,-3.3 1.2715,-1.4649 3.189,-1.5472 4.6909,-0.2304 1.218,1.0657 1.9175,2.4071 2.0739,4.016 0.0699,0.7324 0.0905,1.469 0.1358,2.2055 0.0164,0 0.0329,0.0041 0.0535,0.0083 z"
       fill="#ff8503"
       id="path6" />
    <path
       d="m 118.469,85.8225 c 0,-1.2921 -0.037,-2.5882 0.009,-3.8803 0.049,-1.4978 0.156,-2.9956 0.267,-4.4892 0.132,-1.7324 0.259,-3.4647 0.457,-5.1888 0.259,-2.2549 0.526,-4.5139 0.901,-6.7524 0.383,-2.3125 0.782,-4.6332 1.378,-6.8963 0.564,-2.1397 1.297,-4.2506 2.128,-6.3039 0.724,-1.7899 1.88,-3.3206 3.571,-4.3699 1.432,-0.8888 2.963,-1.0534 4.481,-0.3786 1.449,0.6419 2.885,1.3415 3.988,2.5635 0.971,1.074 1.563,2.3043 1.753,3.7157 0.275,2.0615 -0.037,4.0983 -0.383,6.131 -0.148,0.8559 -0.247,1.72 -0.325,2.5841 -0.136,1.4772 -0.247,2.9544 -0.358,4.4317 -0.049,0.6419 -0.091,1.2879 -0.095,1.9339 -0.037,3.226 -0.082,6.452 -0.086,9.678 -0.004,2.2878 0.066,4.5798 0.074,6.8676 0.004,1.1562 -0.041,2.3166 -0.091,3.4729 -0.033,0.8065 -0.144,1.613 -0.156,2.4236 -0.016,0.7941 0.103,1.5965 0.062,2.3866 -0.091,1.6459 -0.091,3.3041 -0.527,4.9089 -0.486,1.7814 -1.21,3.4274 -2.646,4.6744 -1.605,1.395 -3.46,2.152 -5.584,1.959 -1.559,-0.14 -2.896,-0.914 -4.119,-1.897 -2.041,-1.646 -2.995,-3.8723 -3.518,-6.3535 -0.288,-1.3744 -0.617,-2.7405 -0.88,-4.1189 -0.124,-0.646 -0.169,-1.3085 -0.202,-1.9669 -0.082,-1.7117 -0.14,-3.4235 -0.206,-5.1352 0.033,0 0.07,0 0.107,0 z"
       fill="#ff8503"
       id="path8" />
    <path
       d="m 143.212,41.1231 c -0.094,2.0204 -1.164,4.123 -3.596,5.3616 -1.498,0.7612 -3.09,0.7653 -4.695,0.3209 -2.317,-0.6378 -4.065,-1.9668 -5.024,-4.2094 -1.309,-3.0573 -0.469,-6.4931 2.279,-8.5546 1.305,-0.9794 2.786,-1.5061 4.407,-1.4485 2.021,0.07 3.687,0.9423 4.876,2.5965 1.255,1.7488 1.749,3.3494 1.753,5.9335 z"
       fill="#ff8503"
       id="path10" />
    <path
       d="m 0,70.6315 c 0.102871,-1.8393 0.473206,-3.5181 1.15627,-5.1106 0.72832,-1.6994 1.68296,-3.2589 3.06554,-4.5139 1.23445,-1.1233 2.62938,-1.9874 4.27531,-2.3866 1.14392,-0.2757 1.85578,0.2305 1.94218,1.4032 0.1235,1.7158 -0.107,3.4029 -0.48964,5.0694 -0.37034,1.6171 -0.78182,3.226 -1.18919,4.8349 -0.3333,1.3167 -0.63368,2.6458 -1.0534,3.9337 C 7.25444,75.2565 5.57971,76.4004 4.16421,76.3305 2.68287,76.2564 1.61713,75.4829 0.880573,74.2114 0.378564,73.3432 0.205742,72.3968 0.0987566,71.4216 0.0658379,71.1253 0.024689,70.829 0,70.6315 Z"
       fill="#ff8503"
       id="path12" />
    <path
       d="m 15.1508,42.7281 c 0.0741,2.9626 -2.2384,5.8101 -5.46034,6.2504 C 6.40271,49.427 3.82271,47.4272 3.35774,44.1724 3.27956,43.6416 3.12731,43.1108 3.10673,42.58 3.05324,41.2961 3.41535,40.107 4.16836,39.07 5.28348,37.5311 6.7607,36.523 8.66175,36.235 c 1.25914,-0.1893 2.41125,0.2057 3.47295,0.8641 1.8434,1.1521 3.0408,3.3576 3.0161,5.629 z"
       fill="#ff8503"
       id="path14" />
    <path
       d="m 14.8253,79.5974 c -0.0082,-1.2509 0.3827,-2.329 1.3867,-3.0903 1.0164,-0.7694 2.1315,-0.6089 3.1643,0.358 0.9341,0.8806 1.4279,2.0245 1.9216,3.1725 0.1276,0.3004 0.1893,0.6296 0.3087,0.9341 0.4485,1.1521 -0.2798,2.5923 -1.074,3.1519 -1.0534,0.7366 -2.2508,0.753 -3.3659,0.0165 -1.2551,-0.8271 -1.8599,-2.0739 -2.2097,-3.4729 -0.0864,-0.3456 -0.0905,-0.7119 -0.1317,-1.0698 z"
       fill="#ff8503"
       id="path16" />
    <path
       d="m 178.04,28.0347 c -0.079,0.1605 -0.132,0.3992 -0.28,0.5226 -0.07,0.0576 -0.375,-0.0782 -0.49,-0.2016 -0.452,-0.4732 -0.909,-0.9505 -1.296,-1.4772 -0.444,-0.6008 -0.823,-1.2509 -1.218,-1.8887 -0.095,-0.1522 -0.197,-0.3333 -0.193,-0.4938 0.008,-0.2057 0.07,-0.465 0.209,-0.5925 0.095,-0.0864 0.391,-0.0329 0.548,0.0494 0.798,0.4238 1.267,1.1768 1.753,1.8969 0.304,0.4567 0.535,0.967 0.773,1.4649 0.091,0.1975 0.115,0.4279 0.194,0.72 z"
       fill="#ff8503"
       id="path18" />
  </g>
</svg>
